<svg xmlns="http://www.w3.org/2000/svg" width="1000" height="378" viewBox="0 0 1000 378">
    <style>
        :root {
            --bg: #ffffff;
            --fg: #1f2328;
            --muted: #66707a;
            --bar: #0b5fff;
            --grid: #e6e8eb;
        }
        @media (prefers-color-scheme: dark) {
            :root {
                --bg: #0d1117;
                --fg: #c9d1d9;
                --muted: #8b949e;
                --bar: #58a6ff;
                --grid: #30363d;
            }
        }
        text {
            font-family: system-ui, -apple-system, "Segoe UI", Roboto, Ubuntu, Cantarell, "Noto Sans", Helvetica, Arial, sans-serif;
            dominant-baseline: middle;
        }
        .title {
            font-weight: 600;
            font-size: 16px;
            fill: var(--fg);
            dominant-baseline: central;
        }
        .small {
            font-size: 12px;
            fill: var(--muted);
        }
        .label {
            font-size: 13px;
            fill: var(--fg);
        }
        .value {
            font-size: 12px;
            fill: var(--fg);
        }
    </style>
    <rect x="0" y="0" width="1000" height="378" rx="14" ry="14" fill="var(--bg)"/><text x="0" y="76" class="title">Programming Languages Distribution</text><line x1="0.0" y1="100" x2="0.0" y2="278" stroke="var(--grid)" stroke-width="1" opacity="0.5"/><text x="0.0" y="296" class="small" text-anchor="middle">0%</text><line x1="192.8" y1="100" x2="192.8" y2="278" stroke="var(--grid)" stroke-width="1" opacity="0.5"/><text x="192.8" y="296" class="small" text-anchor="middle">20%</text><line x1="385.6" y1="100" x2="385.6" y2="278" stroke="var(--grid)" stroke-width="1" opacity="0.5"/><text x="385.6" y="296" class="small" text-anchor="middle">40%</text><line x1="578.4" y1="100" x2="578.4" y2="278" stroke="var(--grid)" stroke-width="1" opacity="0.5"/><text x="578.4" y="296" class="small" text-anchor="middle">60%</text><line x1="771.2" y1="100" x2="771.2" y2="278" stroke="var(--grid)" stroke-width="1" opacity="0.5"/><text x="771.2" y="296" class="small" text-anchor="middle">80%</text><line x1="964.0" y1="100" x2="964.0" y2="278" stroke="var(--grid)" stroke-width="1" opacity="0.5"/><text x="964.0" y="296" class="small" text-anchor="middle">100%</text><text x="-12" y="113.0" class="label" text-anchor="end">JavaScript</text><rect x="0" y="100" width="619.4" height="26" rx="6" ry="6" fill="var(--bar)"/><text x="613.4" y="113.0" class="value" text-anchor="end">64.3%</text><text x="-12" y="151.0" class="label" text-anchor="end">TypeScript</text><rect x="0" y="138" width="306.8" height="26" rx="6" ry="6" fill="var(--bar)"/><text x="300.8" y="151.0" class="value" text-anchor="end">31.8%</text><text x="-12" y="189.0" class="label" text-anchor="end">Python</text><rect x="0" y="176" width="16.1" height="26" rx="6" ry="6" fill="var(--bar)"/><text x="22.1" y="189.0" class="value" text-anchor="start">1.7%</text><text x="-12" y="227.0" class="label" text-anchor="end">C++</text><rect x="0" y="214" width="13.4" height="26" rx="6" ry="6" fill="var(--bar)"/><text x="19.4" y="227.0" class="value" text-anchor="start">1.4%</text><text x="-12" y="265.0" class="label" text-anchor="end">Other</text><rect x="0" y="252" width="8.3" height="26" rx="6" ry="6" fill="var(--bar)"/><text x="14.3" y="265.0" class="value" text-anchor="start">0.9%</text><text x="964" y="358" class="small" text-anchor="end">Generated from all accessible repositories</text></svg>