<svg xmlns="http://www.w3.org/2000/svg" width="1000" height="378" viewBox="0 0 1000 378">
    <style>
        :root {
            --bg: #ffffff;
            --fg: #1f2328;
            --muted: #66707a;
            --bar: #0b5fff;
            --grid: #e6e8eb;
        }
        @media (prefers-color-scheme: dark) {
            :root {
                --bg: #0d1117;
                --fg: #c9d1d9;
                --muted: #8b949e;
                --bar: #58a6ff;
                --grid: #30363d;
            }
        }
        text {
            font-family: system-ui, -apple-system, "Segoe UI", Roboto, Ubuntu, Cantarell, "Noto Sans", Helvetica, Arial, sans-serif;
            dominant-baseline: middle;
        }
        .title {
            font-weight: 600;
            font-size: 16px;
            fill: var(--fg);
            dominant-baseline: central;
        }
        .small {
            font-size: 12px;
            fill: var(--muted);
        }
        .label {
            font-size: 13px;
            fill: var(--fg);
        }
        .value {
            font-size: 12px;
            fill: var(--fg);
        }
    </style>
    <rect x="0" y="0" width="1000" height="378" rx="14" ry="14" fill="var(--bg)"/><text x="36" y="76" class="title">Programming Languages Distribution</text><line x1="36.0" y1="100" x2="36.0" y2="278" stroke="var(--grid)" stroke-width="1" opacity="0.5"/><text x="36.0" y="296" class="small" text-anchor="middle">0%</text><line x1="221.6" y1="100" x2="221.6" y2="278" stroke="var(--grid)" stroke-width="1" opacity="0.5"/><text x="221.6" y="296" class="small" text-anchor="middle">20%</text><line x1="407.2" y1="100" x2="407.2" y2="278" stroke="var(--grid)" stroke-width="1" opacity="0.5"/><text x="407.2" y="296" class="small" text-anchor="middle">40%</text><line x1="592.8" y1="100" x2="592.8" y2="278" stroke="var(--grid)" stroke-width="1" opacity="0.5"/><text x="592.8" y="296" class="small" text-anchor="middle">60%</text><line x1="778.4" y1="100" x2="778.4" y2="278" stroke="var(--grid)" stroke-width="1" opacity="0.5"/><text x="778.4" y="296" class="small" text-anchor="middle">80%</text><line x1="964.0" y1="100" x2="964.0" y2="278" stroke="var(--grid)" stroke-width="1" opacity="0.5"/><text x="964.0" y="296" class="small" text-anchor="middle">100%</text><text x="24" y="113.0" class="label" text-anchor="end">JavaScript</text><rect x="36" y="100" width="596.3" height="26" rx="6" ry="6" fill="var(--bar)"/><text x="626.3" y="113.0" class="value" text-anchor="end">64.3%</text><text x="24" y="151.0" class="label" text-anchor="end">TypeScript</text><rect x="36" y="138" width="295.4" height="26" rx="6" ry="6" fill="var(--bar)"/><text x="325.4" y="151.0" class="value" text-anchor="end">31.8%</text><text x="24" y="189.0" class="label" text-anchor="end">Python</text><rect x="36" y="176" width="15.5" height="26" rx="6" ry="6" fill="var(--bar)"/><text x="57.5" y="189.0" class="value" text-anchor="start">1.7%</text><text x="24" y="227.0" class="label" text-anchor="end">C++</text><rect x="36" y="214" width="12.9" height="26" rx="6" ry="6" fill="var(--bar)"/><text x="54.9" y="227.0" class="value" text-anchor="start">1.4%</text><text x="24" y="265.0" class="label" text-anchor="end">Other</text><rect x="36" y="252" width="7.9" height="26" rx="6" ry="6" fill="var(--bar)"/><text x="49.9" y="265.0" class="value" text-anchor="start">0.9%</text><text x="964" y="358" class="small" text-anchor="end">Generated from all accessible repositories</text></svg>