<svg xmlns="http://www.w3.org/2000/svg" width="1000" height="340" viewBox="0 0 1000 340">
    <style>
        :root {
            --bg: #ffffff;
            --fg: #1f2328;
            --muted: #66707a;
            --bar: #0b5fff;
            --grid: #e6e8eb;
        }
        @media (prefers-color-scheme: dark) {
            :root {
                --bg: #0d1117;
                --fg: #c9d1d9;
                --muted: #8b949e;
                --bar: #58a6ff;
                --grid: #30363d;
            }
        }
        text {
            font-family: system-ui, -apple-system, "Segoe UI", Roboto, Ubuntu, Cantarell, "Noto Sans", Helvetica, Arial, sans-serif;
            dominant-baseline: middle;
        }
        .title {
            font-weight: 600;
            font-size: 16px;
            fill: var(--fg);
            dominant-baseline: central;
        }
        .small {
            font-size: 12px;
            fill: var(--muted);
        }
        .label {
            font-size: 13px;
            fill: var(--fg);
        }
        .value {
            font-size: 12px;
            fill: var(--fg);
        }
    </style>
    <rect x="0" y="0" width="1000" height="340" rx="14" ry="14" fill="var(--bg)"/><text x="100" y="76" class="title">Programming Languages Distribution</text><line x1="100.0" y1="100" x2="100.0" y2="240" stroke="var(--grid)" stroke-width="1" opacity="0.5"/><text x="100.0" y="258" class="small" text-anchor="middle">0%</text><line x1="272.8" y1="100" x2="272.8" y2="240" stroke="var(--grid)" stroke-width="1" opacity="0.5"/><text x="272.8" y="258" class="small" text-anchor="middle">20%</text><line x1="445.6" y1="100" x2="445.6" y2="240" stroke="var(--grid)" stroke-width="1" opacity="0.5"/><text x="445.6" y="258" class="small" text-anchor="middle">40%</text><line x1="618.4" y1="100" x2="618.4" y2="240" stroke="var(--grid)" stroke-width="1" opacity="0.5"/><text x="618.4" y="258" class="small" text-anchor="middle">60%</text><line x1="791.2" y1="100" x2="791.2" y2="240" stroke="var(--grid)" stroke-width="1" opacity="0.5"/><text x="791.2" y="258" class="small" text-anchor="middle">80%</text><line x1="964.0" y1="100" x2="964.0" y2="240" stroke="var(--grid)" stroke-width="1" opacity="0.5"/><text x="964.0" y="258" class="small" text-anchor="middle">100%</text><text x="88" y="113.0" class="label" text-anchor="end">JavaScript</text><rect x="100" y="100" width="562.9" height="26" rx="6" ry="6" fill="var(--bar)"/><text x="656.9" y="113.0" class="value" text-anchor="end">65.1%</text><text x="88" y="151.0" class="label" text-anchor="end">TypeScript</text><rect x="100" y="138" width="275.2" height="26" rx="6" ry="6" fill="var(--bar)"/><text x="369.2" y="151.0" class="value" text-anchor="end">31.9%</text><text x="88" y="189.0" class="label" text-anchor="end">Python</text><rect x="100" y="176" width="11.0" height="26" rx="6" ry="6" fill="var(--bar)"/><text x="117.0" y="189.0" class="value" text-anchor="start">1.3%</text><text x="88" y="227.0" class="label" text-anchor="end">Other</text><rect x="100" y="214" width="14.9" height="26" rx="6" ry="6" fill="var(--bar)"/><text x="120.9" y="227.0" class="value" text-anchor="start">1.7%</text><text x="964" y="320" class="small" text-anchor="end">Generated from all accessible repositories</text></svg>