<svg xmlns="http://www.w3.org/2000/svg" width="860" height="202" viewBox="0 0 860 202">
    <style>
        :root {
            --bg: #ffffff;
            --fg: #1f2328;
            --muted: #66707a;
            --bar: #0b5fff;
            --grid: #e6e8eb;
        }
        @media (prefers-color-scheme: dark) {
            :root {
                --bg: #0d1117;
                --fg: #c9d1d9;
                --muted: #8b949e;
                --bar: #58a6ff;
                --grid: #30363d;
            }
        }
        text {
            font-family: system-ui, -apple-system, "Segoe UI", Roboto, Ubuntu, Cantarell, "Noto Sans", Helvetica, Arial, sans-serif;
            dominant-baseline: middle;
        }
        .title {
            font-weight: 600;
            font-size: 16px;
            fill: var(--fg);
            dominant-baseline: central;
        }
        .small {
            font-size: 12px;
            fill: var(--muted);
        }
        .label {
            font-size: 13px;
            fill: var(--fg);
        }
        .value {
            font-size: 12px;
            fill: var(--fg);
        }
    </style>
    <rect x="0" y="0" width="860" height="202" rx="14" ry="14" fill="var(--bg)"/><text x="170" y="28" class="title">Programming Languages Distribution</text><line x1="170.0" y1="52" x2="170.0" y2="154" stroke="var(--grid)" stroke-width="1" opacity="0.5"/><text x="170.0" y="172" class="small" text-anchor="middle">0%</text><line x1="300.8" y1="52" x2="300.8" y2="154" stroke="var(--grid)" stroke-width="1" opacity="0.5"/><text x="300.8" y="172" class="small" text-anchor="middle">20%</text><line x1="431.6" y1="52" x2="431.6" y2="154" stroke="var(--grid)" stroke-width="1" opacity="0.5"/><text x="431.6" y="172" class="small" text-anchor="middle">40%</text><line x1="562.4" y1="52" x2="562.4" y2="154" stroke="var(--grid)" stroke-width="1" opacity="0.5"/><text x="562.4" y="172" class="small" text-anchor="middle">60%</text><line x1="693.2" y1="52" x2="693.2" y2="154" stroke="var(--grid)" stroke-width="1" opacity="0.5"/><text x="693.2" y="172" class="small" text-anchor="middle">80%</text><line x1="824.0" y1="52" x2="824.0" y2="154" stroke="var(--grid)" stroke-width="1" opacity="0.5"/><text x="824.0" y="172" class="small" text-anchor="middle">100%</text><text x="158" y="65.0" class="label" text-anchor="end">JavaScript</text><rect x="170" y="52" width="420.2" height="26" rx="6" ry="6" fill="var(--bar)"/><text x="584.2" y="65.0" class="value" text-anchor="end">64.3%</text><text x="158" y="103.0" class="label" text-anchor="end">TypeScript</text><rect x="170" y="90" width="208.2" height="26" rx="6" ry="6" fill="var(--bar)"/><text x="372.2" y="103.0" class="value" text-anchor="end">31.8%</text><text x="158" y="141.0" class="label" text-anchor="end">Other</text><rect x="170" y="128" width="25.6" height="26" rx="6" ry="6" fill="var(--bar)"/><text x="201.6" y="141.0" class="value" text-anchor="start">3.9%</text><text x="824" y="182" class="small" text-anchor="end">Generated from all accessible repositories</text></svg>