<svg xmlns="http://www.w3.org/2000/svg" width="1000" height="278" viewBox="0 0 1000 278">
    <style>
        :root {
            --bg: #ffffff;
            --fg: #1f2328;
            --muted: #66707a;
            --bar: #0b5fff;
            --grid: #e6e8eb;
        }
        @media (prefers-color-scheme: dark) {
            :root {
                --bg: #0d1117;
                --fg: #c9d1d9;
                --muted: #8b949e;
                --bar: #58a6ff;
                --grid: #30363d;
            }
        }
        text {
            font-family: system-ui, -apple-system, "Segoe UI", Roboto, Ubuntu, Cantarell, "Noto Sans", Helvetica, Arial, sans-serif;
            dominant-baseline: middle;
        }
        .title {
            font-weight: 600;
            font-size: 16px;
            fill: var(--fg);
            dominant-baseline: central;
        }
        .small {
            font-size: 12px;
            fill: var(--muted);
        }
        .label {
            font-size: 13px;
            fill: var(--fg);
        }
        .value {
            font-size: 12px;
            fill: var(--fg);
        }
    </style>
    <rect x="0" y="0" width="1000" height="278" rx="14" ry="14" fill="var(--bg)"/><text x="170" y="28" class="title">Programming Languages Distribution</text><line x1="170.0" y1="52" x2="170.0" y2="230" stroke="var(--grid)" stroke-width="1" opacity="0.5"/><text x="170.0" y="248" class="small" text-anchor="middle">0%</text><line x1="328.8" y1="52" x2="328.8" y2="230" stroke="var(--grid)" stroke-width="1" opacity="0.5"/><text x="328.8" y="248" class="small" text-anchor="middle">20%</text><line x1="487.6" y1="52" x2="487.6" y2="230" stroke="var(--grid)" stroke-width="1" opacity="0.5"/><text x="487.6" y="248" class="small" text-anchor="middle">40%</text><line x1="646.4" y1="52" x2="646.4" y2="230" stroke="var(--grid)" stroke-width="1" opacity="0.5"/><text x="646.4" y="248" class="small" text-anchor="middle">60%</text><line x1="805.2" y1="52" x2="805.2" y2="230" stroke="var(--grid)" stroke-width="1" opacity="0.5"/><text x="805.2" y="248" class="small" text-anchor="middle">80%</text><line x1="964.0" y1="52" x2="964.0" y2="230" stroke="var(--grid)" stroke-width="1" opacity="0.5"/><text x="964.0" y="248" class="small" text-anchor="middle">100%</text><text x="158" y="65.0" class="label" text-anchor="end">JavaScript</text><rect x="170" y="52" width="510.2" height="26" rx="6" ry="6" fill="var(--bar)"/><text x="674.2" y="65.0" class="value" text-anchor="end">64.3%</text><text x="158" y="103.0" class="label" text-anchor="end">TypeScript</text><rect x="170" y="90" width="252.7" height="26" rx="6" ry="6" fill="var(--bar)"/><text x="416.7" y="103.0" class="value" text-anchor="end">31.8%</text><text x="158" y="141.0" class="label" text-anchor="end">Python</text><rect x="170" y="128" width="13.3" height="26" rx="6" ry="6" fill="var(--bar)"/><text x="189.3" y="141.0" class="value" text-anchor="start">1.7%</text><text x="158" y="179.0" class="label" text-anchor="end">C++</text><rect x="170" y="166" width="11.1" height="26" rx="6" ry="6" fill="var(--bar)"/><text x="187.1" y="179.0" class="value" text-anchor="start">1.4%</text><text x="158" y="217.0" class="label" text-anchor="end">Other</text><rect x="170" y="204" width="6.8" height="26" rx="6" ry="6" fill="var(--bar)"/><text x="182.8" y="217.0" class="value" text-anchor="start">0.9%</text><text x="964" y="258" class="small" text-anchor="end">Generated from all accessible repositories</text></svg>